<svg xmlns="http://www.w3.org/2000/svg" viewBox="0 0 158.75 109.369">

  <path id="logo-curly-left" style="fill:#000;stroke:none" d="M35.56.03c-7.528 0-13.195 1.302-17.001 3.905-4.153 2.847-6.23 7.28-6.23 13.3v25.88c0 2.115-.735 3.58-2.206 4.393-1.298.814-3.08.872-5.45.854-1.474-.01-2.64.448-3.505 1.586C.389 50.925 0 53.15 0 54.696c0 1.464.39 3.69 1.168 4.747.865 1.139 2.033 1.506 3.504 1.586 2.427.133 4.153.448 5.45 1.342 1.472.977 2.207 2.644 2.207 5.003v25.392c0 5.288 2.077 9.396 6.23 12.324 4.066 2.847 9.733 4.27 17 4.27 1.385.082 2.51-.447 3.375-1.585.779-.977 1.168-3.202 1.168-4.748 0-1.545-.39-2.847-1.168-3.904-.865-1.22-1.99-1.75-3.374-1.587-3.98-.081-4.733-.447-6.118-1.098-2.163-.895-3.244-2.725-3.244-5.49V65.31c0-2.033-.476-3.986-1.428-5.857-.951-2.033-2.25-3.579-3.893-4.636a13.39 13.39 0 0 0 3.893-4.515 13.006 13.006 0 0 0 1.428-5.98V20.13c0-2.44-.154-5.49 2.28-7.054 2.434-1.565 3.448-1.22 7.082-1.22 1.384 0 2.509-.57 3.374-1.708.779-1.058 1.168-2.319 1.168-3.783 0-1.546-.39-3.812-1.168-4.87C38.069.357 36.944-.131 35.56.032z"/>

  <path id="logo-p-1" style="fill:#000;stroke:none" d="M52.917 27.342h10.937a3.638 3.638 0 0 1 3.646 3.646v65.621a3.638 3.638 0 0 1-3.646 3.646H52.917a3.638 3.638 0 0 1-3.645-3.646V30.988a3.638 3.638 0 0 1 3.645-3.646z"/>

  <path id="logo-p-2" style="fill:#000;stroke:none" d="M74.791 27.342a3.638 3.638 0 0 0-3.645 3.646v10.937a3.638 3.638 0 0 0 3.645 3.646H93.02v18.228H74.791a3.637 3.637 0 0 0-3.645 3.645v10.937a3.637 3.637 0 0 0 3.645 3.646h32.811a3.637 3.637 0 0 0 3.645-3.646V30.988a3.638 3.638 0 0 0-3.645-3.646h-8.72z"/>

  <path id="logo-curly-right" style="fill:#000;stroke:none" d="M123.19.03c7.528 0 13.195 1.302 17.001 3.905 4.153 2.847 6.23 7.28 6.23 13.3v25.88c0 2.115.735 3.58 2.206 4.393 1.298.814 3.08.872 5.45.854 1.474-.01 2.64.448 3.505 1.586.779.977 1.168 3.202 1.168 4.748 0 1.464-.39 3.69-1.168 4.747-.865 1.139-2.033 1.506-3.504 1.586-2.427.133-4.153.448-5.45 1.342-1.472.977-2.207 2.644-2.207 5.003v25.392c0 5.288-2.077 9.396-6.23 12.324-4.066 2.847-9.733 4.27-17 4.27-1.385.082-2.51-.447-3.375-1.585-.779-.977-1.168-3.202-1.168-4.748 0-1.545.39-2.847 1.168-3.904.865-1.22 1.99-1.75 3.374-1.587 3.98-.08 4.733-.447 6.118-1.098 2.163-.895 3.244-2.725 3.244-5.49V65.31c0-2.033.476-3.986 1.428-5.857.951-2.033 2.25-3.579 3.893-4.636a13.389 13.389 0 0 1-3.893-4.515 13.006 13.006 0 0 1-1.428-5.979V20.129c0-2.44.154-5.49-2.28-7.054-2.434-1.565-3.448-1.22-7.082-1.22-1.384 0-2.509-.57-3.374-1.708-.779-1.058-1.168-2.319-1.168-3.783 0-1.546.39-3.812 1.168-4.87.865-1.138 1.99-1.626 3.374-1.463z"/>
</svg>
